# xmcd
#
# Track frame offsets: 
#        150
#        18317
#        34525
#        58955
#        71585
#        88112
#        108440
#        124135
#        142587
#        170920
#        188995
#        206315
#
# Disc length: 3049 seconds
#
# Revision: 2
# Processed by: cddbd v1.5.2PL0 Copyright (c) Steve Scherf et al.
# Submitted via: ExactAudioCopyFreeDBPlugin 1.0
#
DISCID=a60be70c
DTITLE=Ziggy Marley - The Best of Ziggy Marley And The Melody Makers
DYEAR=2008
DGENRE=Reggae
TTITLE0=Give A Little Love
TTITLE1=Tomorrow People
TTITLE2=Goodtime
TTITLE3=Brothers And Sisters
TTITLE4=New Love
TTITLE5=Freedom Road
TTITLE6=Met Her On A Rainy Day
TTITLE7=Reggae Revolution
TTITLE8=Kozmic
TTITLE9=Tumblin' Down
TTITLE10=Aiding And Abetting
TTITLE11=Look Who's Dancing
EXTD=
EXTT0=
EXTT1=
EXTT2=
EXTT3=
EXTT4=
EXTT5=
EXTT6=
EXTT7=
EXTT8=
EXTT9=
EXTT10=
EXTT11=
PLAYORDER=
